<?xml version="1.0" encoding="UTF-8"?>
<svg width="32px" height="32px" viewBox="0 0 32 32" version="1.1" xmlns="http://www.w3.org/2000/svg">
    <title>SF Local Shows</title>
    <defs>
        <linearGradient x1="0%" y1="0%" x2="100%" y2="100%" id="gradient">
            <stop stop-color="#a855f7" offset="0%"></stop>
            <stop stop-color="#3b82f6" offset="100%"></stop>
        </linearGradient>
    </defs>
    <g stroke="none" stroke-width="1" fill="none" fill-rule="evenodd">
        <circle fill="#2e1d4a" cx="16" cy="16" r="16"></circle>
        <path d="M12,9 C12,7.34314575 13.3431458,6 15,6 C16.6568542,6 18,7.34314575 18,9 L18,14 L22,14 C23.6568542,14 25,15.3431458 25,17 C25,18.6568542 23.6568542,20 22,20 L18,20 L18,23 C18,24.6568542 16.6568542,26 15,26 C13.3431458,26 12,24.6568542 12,23 L12,20 L10,20 C8.34314575,20 7,18.6568542 7,17 C7,15.3431458 8.34314575,14 10,14 L12,14 L12,9 Z" fill="url(#gradient)"></path>
    </g>
</svg>
