<?xml version="1.0" encoding="UTF-8" standalone="no"?>
<svg width="1000" height="8" viewBox="0 0 1000 8" xmlns="http://www.w3.org/2000/svg">
  <path d="M0,4 C20,1 40,7 60,4 C80,1 100,7 120,4 C140,1 160,7 180,4 C200,1 220,7 240,4 C260,1 280,7 300,4 C320,1 340,7 360,4 C380,1 400,7 420,4 C440,1 460,7 480,4 C500,1 520,7 540,4 C560,1 580,7 600,4 C620,1 640,7 660,4 C680,1 700,7 720,4 C740,1 760,7 780,4 C800,1 820,7 840,4 C860,1 880,7 900,4 C920,1 940,7 960,4 C980,1 1000,7 1020,4" stroke="#ffe89e" stroke-width="2" fill="none" stroke-linecap="round" />
</svg>